<mxfile host="www.draw.io" modified="2020-01-02T10:09:50.073Z" agent="Mozilla/5.0 (Macintosh; Intel Mac OS X 10_14_0) AppleWebKit/537.36 (KHTML, like Gecko) Chrome/79.0.3945.88 Safari/537.36" etag="eRZjl_xHTcii7Ko4NaaR" version="12.4.8" type="github">
  <diagram id="EUYB7W6pQSVpxgEb9JJ3" name="Page-1">
    <mxGraphModel dx="1186" dy="741" grid="1" gridSize="10" guides="1" tooltips="1" connect="1" arrows="1" fold="1" page="1" pageScale="1" pageWidth="827" pageHeight="1169" math="0" shadow="0">
      <root>
        <mxCell id="0"/>
        <mxCell id="1" parent="0"/>
        <mxCell id="hsoJH5TQklSJRY5v9K-1-1" value="Handler" style="swimlane;fontStyle=1;align=center;verticalAlign=top;childLayout=stackLayout;horizontal=1;startSize=26;horizontalStack=0;resizeParent=1;resizeParentMax=0;resizeLast=0;collapsible=1;marginBottom=0;fillColor=#F08E81;fontColor=#FFFFFF;" vertex="1" parent="1">
          <mxGeometry x="333" y="280" width="160" height="105" as="geometry"/>
        </mxCell>
        <mxCell id="hsoJH5TQklSJRY5v9K-1-2" value="- successor: Handler" style="text;strokeColor=none;fillColor=#F08E81;align=left;verticalAlign=top;spacingLeft=4;spacingRight=4;overflow=hidden;rotatable=0;points=[[0,0.5],[1,0.5]];portConstraint=eastwest;fontColor=#FFFFFF;" vertex="1" parent="hsoJH5TQklSJRY5v9K-1-1">
          <mxGeometry y="26" width="160" height="26" as="geometry"/>
        </mxCell>
        <mxCell id="hsoJH5TQklSJRY5v9K-1-3" value="" style="line;strokeWidth=1;fillColor=#F08E81;align=left;verticalAlign=middle;spacingTop=-1;spacingLeft=3;spacingRight=3;rotatable=0;labelPosition=right;points=[];portConstraint=eastwest;fontColor=#FFFFFF;" vertex="1" parent="hsoJH5TQklSJRY5v9K-1-1">
          <mxGeometry y="52" width="160" height="1" as="geometry"/>
        </mxCell>
        <mxCell id="hsoJH5TQklSJRY5v9K-1-4" value="+ setSeccessor(Handler)" style="text;strokeColor=none;fillColor=#F08E81;align=left;verticalAlign=top;spacingLeft=4;spacingRight=4;overflow=hidden;rotatable=0;points=[[0,0.5],[1,0.5]];portConstraint=eastwest;fontColor=#FFFFFF;" vertex="1" parent="hsoJH5TQklSJRY5v9K-1-1">
          <mxGeometry y="53" width="160" height="26" as="geometry"/>
        </mxCell>
        <mxCell id="hsoJH5TQklSJRY5v9K-1-5" value="+ handleRequest(String)" style="text;strokeColor=none;fillColor=#F08E81;align=left;verticalAlign=top;spacingLeft=4;spacingRight=4;overflow=hidden;rotatable=0;points=[[0,0.5],[1,0.5]];portConstraint=eastwest;fontColor=#FFFFFF;" vertex="1" parent="hsoJH5TQklSJRY5v9K-1-1">
          <mxGeometry y="79" width="160" height="26" as="geometry"/>
        </mxCell>
        <mxCell id="hsoJH5TQklSJRY5v9K-1-23" value="" style="endArrow=diamondThin;endFill=0;endSize=24;html=1;fontColor=#000000;entryX=0.5;entryY=0;entryDx=0;entryDy=0;exitX=1;exitY=0.5;exitDx=0;exitDy=0;edgeStyle=orthogonalEdgeStyle;" edge="1" parent="hsoJH5TQklSJRY5v9K-1-1" source="hsoJH5TQklSJRY5v9K-1-2" target="hsoJH5TQklSJRY5v9K-1-1">
          <mxGeometry width="160" relative="1" as="geometry">
            <mxPoint x="237" y="50" as="sourcePoint"/>
            <mxPoint x="397" y="50" as="targetPoint"/>
            <Array as="points">
              <mxPoint x="207" y="39"/>
              <mxPoint x="207" y="-70"/>
              <mxPoint x="80" y="-70"/>
            </Array>
          </mxGeometry>
        </mxCell>
        <mxCell id="hsoJH5TQklSJRY5v9K-1-7" value="ConcreteHandlerA" style="swimlane;fontStyle=1;align=center;verticalAlign=top;childLayout=stackLayout;horizontal=1;startSize=26;horizontalStack=0;resizeParent=1;resizeParentMax=0;resizeLast=0;collapsible=1;marginBottom=0;fillColor=#F08E81;fontColor=#FFFFFF;" vertex="1" parent="1">
          <mxGeometry x="173" y="520" width="160" height="53" as="geometry"/>
        </mxCell>
        <mxCell id="hsoJH5TQklSJRY5v9K-1-9" value="" style="line;strokeWidth=1;fillColor=#F08E81;align=left;verticalAlign=middle;spacingTop=-1;spacingLeft=3;spacingRight=3;rotatable=0;labelPosition=right;points=[];portConstraint=eastwest;fontColor=#FFFFFF;" vertex="1" parent="hsoJH5TQklSJRY5v9K-1-7">
          <mxGeometry y="26" width="160" height="1" as="geometry"/>
        </mxCell>
        <mxCell id="hsoJH5TQklSJRY5v9K-1-11" value="+ handleRequest(String)" style="text;strokeColor=none;fillColor=#F08E81;align=left;verticalAlign=top;spacingLeft=4;spacingRight=4;overflow=hidden;rotatable=0;points=[[0,0.5],[1,0.5]];portConstraint=eastwest;fontColor=#FFFFFF;" vertex="1" parent="hsoJH5TQklSJRY5v9K-1-7">
          <mxGeometry y="27" width="160" height="26" as="geometry"/>
        </mxCell>
        <mxCell id="hsoJH5TQklSJRY5v9K-1-12" value="ConcreteHandlerA" style="swimlane;fontStyle=1;align=center;verticalAlign=top;childLayout=stackLayout;horizontal=1;startSize=26;horizontalStack=0;resizeParent=1;resizeParentMax=0;resizeLast=0;collapsible=1;marginBottom=0;fillColor=#F08E81;fontColor=#FFFFFF;" vertex="1" parent="1">
          <mxGeometry x="493" y="520" width="160" height="53" as="geometry"/>
        </mxCell>
        <mxCell id="hsoJH5TQklSJRY5v9K-1-14" value="" style="line;strokeWidth=1;fillColor=#F08E81;align=left;verticalAlign=middle;spacingTop=-1;spacingLeft=3;spacingRight=3;rotatable=0;labelPosition=right;points=[];portConstraint=eastwest;fontColor=#FFFFFF;" vertex="1" parent="hsoJH5TQklSJRY5v9K-1-12">
          <mxGeometry y="26" width="160" height="1" as="geometry"/>
        </mxCell>
        <mxCell id="hsoJH5TQklSJRY5v9K-1-16" value="+ handleRequest(String)" style="text;strokeColor=none;fillColor=#F08E81;align=left;verticalAlign=top;spacingLeft=4;spacingRight=4;overflow=hidden;rotatable=0;points=[[0,0.5],[1,0.5]];portConstraint=eastwest;fontColor=#FFFFFF;" vertex="1" parent="hsoJH5TQklSJRY5v9K-1-12">
          <mxGeometry y="27" width="160" height="26" as="geometry"/>
        </mxCell>
        <mxCell id="hsoJH5TQklSJRY5v9K-1-17" value="Extends" style="endArrow=block;endSize=16;endFill=0;html=1;fontColor=#000000;entryX=0.5;entryY=1;entryDx=0;entryDy=0;exitX=0.5;exitY=0;exitDx=0;exitDy=0;edgeStyle=orthogonalEdgeStyle;" edge="1" parent="1" source="hsoJH5TQklSJRY5v9K-1-7" target="hsoJH5TQklSJRY5v9K-1-1">
          <mxGeometry width="160" relative="1" as="geometry">
            <mxPoint x="170" y="430" as="sourcePoint"/>
            <mxPoint x="330" y="430" as="targetPoint"/>
          </mxGeometry>
        </mxCell>
        <mxCell id="hsoJH5TQklSJRY5v9K-1-18" value="Extends" style="endArrow=block;endSize=16;endFill=0;html=1;fontColor=#000000;entryX=0.5;entryY=1;entryDx=0;entryDy=0;exitX=0.5;exitY=0;exitDx=0;exitDy=0;edgeStyle=orthogonalEdgeStyle;" edge="1" parent="1" source="hsoJH5TQklSJRY5v9K-1-12" target="hsoJH5TQklSJRY5v9K-1-1">
          <mxGeometry width="160" relative="1" as="geometry">
            <mxPoint x="360" y="680" as="sourcePoint"/>
            <mxPoint x="520" y="680" as="targetPoint"/>
          </mxGeometry>
        </mxCell>
      </root>
    </mxGraphModel>
  </diagram>
</mxfile>
